<?xml version="1.0" standalone="no"?>
<!DOCTYPE svg PUBLIC "-//W3C//DTD SVG 20010904//EN"
 "http://www.w3.org/TR/2001/REC-SVG-20010904/DTD/svg10.dtd">
<svg version="1.0" xmlns="http://www.w3.org/2000/svg"
 width="500.000000pt" height="500.000000pt" viewBox="0 0 500.000000 500.000000"
 preserveAspectRatio="xMidYMid meet">

<g transform="translate(0.000000,500.000000) scale(0.100000,-0.100000)"
fill="#000000" stroke="none">
<path d="M4280 3189 c-19 -4 -127 -26 -240 -49 -283 -57 -277 -55 -275 -95 0
-19 5 -38 9 -42 5 -5 6 -2 1 6 -5 9 -4 12 2 8 5 -3 9 -23 8 -44 -1 -21 3 -44
9 -52 9 -12 8 -13 -4 -6 -9 5 -7 -1 5 -15 12 -14 14 -20 5 -15 -13 8 -13 6 -1
-8 11 -14 11 -18 -4 -23 -9 -4 -21 -2 -28 5 -6 6 -22 11 -35 11 -13 0 -32 5
-42 10 -11 6 -31 8 -45 4 -20 -5 -24 -11 -19 -29 3 -13 1 -31 -4 -41 -7 -13
-4 -26 9 -48 25 -40 24 -77 -2 -110 -36 -46 -112 -31 -124 24 -8 37 16 80 45
80 20 0 25 14 21 58 -1 13 3 30 9 37 8 10 -1 12 -47 9 l-58 -3 54 13 c30 8 60
12 67 9 7 -2 15 0 18 6 7 11 -2 10 -151 -10 -78 -10 -90 -14 -76 -25 15 -10 7
-13 -50 -19 -37 -4 -70 -12 -74 -18 -4 -7 5 -8 25 -4 38 8 38 7 12 -92 -28
-103 -8 -124 32 -34 14 31 29 49 51 58 18 8 28 14 22 15 -5 0 -4 5 2 11 6 6 9
18 6 25 -10 26 6 64 28 64 25 0 35 -24 21 -54 -7 -17 -5 -30 9 -56 24 -46 24
-72 -2 -104 -16 -20 -29 -26 -59 -26 -21 0 -43 6 -50 15 -11 14 -14 13 -27 -5
-15 -21 -52 -27 -69 -10 -8 8 -15 6 -24 -5 -16 -19 -39 -19 -61 1 -10 9 -22
14 -26 11 -12 -7 -10 -88 1 -106 7 -11 6 -12 -5 -6 -12 8 -12 6 0 -8 7 -9 10
-17 6 -17 -4 0 -1 -8 6 -17 12 -15 12 -16 -1 -8 -12 7 -13 6 -3 -7 7 -8 10
-18 6 -21 -21 -22 395 31 422 53 6 5 39 12 75 16 48 6 58 9 40 14 -20 5 -14 8
28 14 43 5 52 10 43 20 -9 10 -8 15 4 20 8 3 15 12 15 20 0 8 12 18 28 24 l27
9 -38 7 c-29 5 -37 11 -33 22 3 9 6 17 6 18 0 2 11 1 25 -2 14 -2 25 0 25 6 0
5 24 11 53 11 28 1 93 10 142 19 88 18 89 18 48 25 -53 9 -107 58 -123 113
-24 81 28 172 111 194 55 15 71 7 31 -14 -67 -34 -78 -127 -23 -180 54 -52
124 -42 168 23 l23 34 0 -28 c0 -36 -36 -100 -66 -116 -13 -7 -22 -14 -20 -16
7 -7 126 29 126 37 0 4 22 10 49 14 27 4 51 13 54 20 3 7 26 17 51 20 44 7 60
20 34 28 -8 3 -4 9 10 17 12 6 22 21 22 31 0 14 7 20 23 21 17 0 14 3 -13 12
-19 7 -36 19 -38 27 -2 8 -9 18 -15 22 -12 7 -12 7 53 26 l35 10 -34 1 c-33 1
-34 1 -16 21 10 11 13 20 8 20 -16 0 -25 31 -13 45 8 9 0 14 -32 19 l-43 7 23
19 23 19 -33 5 c-69 10 -134 12 -168 5z m-11 -117 c6 -11 16 -12 44 -4 43 12
49 1 16 -34 l-21 -23 22 -35 c24 -41 23 -42 -25 -22 -34 15 -35 14 -60 -17
l-25 -32 0 41 c0 37 -4 43 -30 54 -37 15 -38 26 -3 35 34 8 43 21 43 60 1 29
1 29 16 10 8 -11 19 -26 23 -33z m-464 -252 c-3 -5 -15 -10 -26 -10 -10 0 -19
5 -19 10 0 6 12 10 26 10 14 0 23 -4 19 -10z"/>
<path d="M4138 3183 c7 -3 16 -2 19 1 4 3 -2 6 -13 5 -11 0 -14 -3 -6 -6z"/>
<path d="M4060 3170 c0 -6 11 -8 28 -4 39 10 40 14 4 14 -18 0 -32 -5 -32 -10z"/>
<path d="M3708 2883 c6 -2 18 -2 25 0 6 3 1 5 -13 5 -14 0 -19 -2 -12 -5z"/>
<path d="M4498 2823 c6 -2 18 -2 25 0 6 3 1 5 -13 5 -14 0 -19 -2 -12 -5z"/>
<path d="M3195 2813 c-11 -2 -29 -6 -40 -8 -17 -4 -20 -11 -17 -50 2 -24 -1
-58 -6 -75 -23 -63 28 -13 52 52 10 26 29 57 43 68 22 17 23 20 7 19 -11 -1
-28 -3 -39 -6z"/>
<path d="M4433 2813 c9 -2 23 -2 30 0 6 3 -1 5 -18 5 -16 0 -22 -2 -12 -5z"/>
<path d="M3237 2773 c-22 -25 -37 -68 -37 -109 0 -46 18 -41 47 12 39 70 31
142 -10 97z"/>
<path d="M2666 2749 c-8 -42 0 -50 9 -9 4 17 5 34 2 36 -2 3 -7 -10 -11 -27z"/>
<path d="M3081 2761 c-25 -25 -58 -128 -45 -141 6 -6 10 0 12 18 1 15 15 53
30 85 16 31 27 57 25 57 -2 0 -12 -9 -22 -19z"/>
<path d="M3586 2762 c-4 -7 -3 -12 2 -12 13 0 24 -29 16 -42 -5 -7 -12 -5 -20
6 -20 28 -49 16 -49 -19 0 -25 4 -30 28 -33 36 -4 57 13 57 47 0 33 -24 69
-34 53z"/>
<path d="M3426 2752 c-3 -6 -2 -13 4 -17 11 -7 14 -45 4 -45 -4 0 -12 7 -19
17 -7 10 -19 14 -29 10 -22 -9 -18 -56 5 -70 24 -15 69 16 69 46 -1 29 -25 73
-34 59z"/>
<path d="M2782 2738 c-16 -22 -43 -79 -40 -87 2 -3 15 17 29 46 27 55 29 62
11 41z"/>
<path d="M2842 2702 c-17 -74 -14 -99 4 -32 8 30 13 61 12 70 -2 8 -9 -9 -16
-38z"/>
<path d="M2688 2645 c2 -18 -1 -43 -8 -56 -11 -23 -10 -23 4 -5 17 21 22 81 8
90 -4 2 -6 -10 -4 -29z"/>
<path d="M2901 2645 c-7 -21 -22 -46 -33 -57 -11 -11 -14 -18 -7 -16 17 5 62
84 57 99 -2 6 -9 -6 -17 -26z"/>
<path d="M2496 2624 c-4 -20 -5 -38 -3 -40 3 -3 8 11 11 32 4 20 5 38 3 40 -3
3 -8 -11 -11 -32z"/>
<path d="M2580 2645 c-6 -8 -10 -19 -8 -26 2 -6 9 0 16 15 13 29 10 33 -8 11z"/>
<path d="M2411 2614 c0 -11 3 -14 6 -6 3 7 2 16 -1 19 -3 4 -6 -2 -5 -13z"/>
<path d="M2722 2593 c-6 -20 -7 -32 -2 -27 10 10 25 64 18 64 -3 0 -10 -16
-16 -37z"/>
<path d="M3100 2620 c0 -6 -15 -17 -32 -25 -26 -11 -29 -14 -12 -15 28 0 72
34 56 44 -7 4 -12 2 -12 -4z"/>
<path d="M2167 2601 c-4 -17 -3 -21 5 -13 5 5 8 16 6 23 -3 8 -7 3 -11 -10z"/>
<path d="M2998 2539 c-9 -32 -13 -59 -9 -59 10 0 40 109 32 115 -4 2 -14 -23
-23 -56z"/>
<path d="M3793 2523 c9 -2 23 -2 30 0 6 3 -1 5 -18 5 -16 0 -22 -2 -12 -5z"/>
</g>
</svg>
